<svg width="296" height="304" viewBox="0 0 296 304" fill="none" xmlns="http://www.w3.org/2000/svg">
<path d="M233.508 46.8277C190.276 49.0601 178.416 11.0607 141.993 2.16427C103.204 -7.3144 85.6969 16.2682 81.5514 35.5498C78.3559 50.4132 71.6392 56.8651 53.9369 60.9979C41.3195 63.3185 30.1393 69.8919 33.0677 87.9224C35.9962 105.953 30.0604 116.719 21.2244 123.169C12.3883 129.62 4.14456 138.777 1.24514 150.708C-3.6658 170.903 6.31748 192.056 24.7171 201.435C45.3932 211.75 56.4976 223.041 55.0454 246.46C54.6824 252.313 57.1189 283.454 86.6809 274.041C94.1472 271.664 125.034 255.632 143.777 285.387C148.444 292.796 160.001 300.086 170.561 302.67C198.881 309.588 227.834 288.659 230.709 259.842C233.828 238.519 237.697 228.521 260.69 235.968C283.44 243.337 297.055 211.593 284.325 195.307C266.658 176.953 287.739 143.944 294.434 116.401C303.585 78.753 271.245 42.7275 233.508 46.8277Z" fill="#F2CD4C"/>
</svg>
